<svg width="32" height="32" viewBox="0 0 32 32" fill="none" xmlns="http://www.w3.org/2000/svg">
<path d="M4 12C4 5.37258 9.37258 0 16 0C22.6274 0 28 5.37258 28 12C28 15.3825 26.5992 18.4395 24.3487 20.6197C23.9428 21.0129 23.6304 21.4214 23.4425 21.8574L21.9184 25.3956C21.7604 25.7624 21.3994 26 21 26H11C10.6006 26 10.2396 25.7624 10.0816 25.3956L8.55745 21.8574C8.36962 21.4214 8.05716 21.0129 7.65127 20.6197C5.40079 18.4395 4 15.3825 4 12Z" fill="url(#paint0_linear_227_3844)"/>
<path d="M10 29C10 28.4477 10.4477 28 11 28H21C21.5523 28 22 28.4477 22 29C22 29.5523 21.5523 30 21 30L20.5528 30.8944C20.214 31.572 19.5215 32 18.7639 32H13.2361C12.4785 32 11.786 31.572 11.4472 30.8944L11 30C10.4477 30 10 29.5523 10 29Z" fill="url(#paint1_linear_227_3844)"/>
<defs>
<linearGradient id="paint0_linear_227_3844" x1="28" y1="16" x2="4" y2="16" gradientUnits="userSpaceOnUse">
<stop stop-color="#735EE0"/>
<stop offset="1" stop-color="#22DBD7"/>
</linearGradient>
<linearGradient id="paint1_linear_227_3844" x1="28" y1="16" x2="4" y2="16" gradientUnits="userSpaceOnUse">
<stop stop-color="#735EE0"/>
<stop offset="1" stop-color="#22DBD7"/>
</linearGradient>
</defs>
</svg>
