<svg width="49" height="48" viewBox="0 0 49 48" fill="none" xmlns="http://www.w3.org/2000/svg">
<path d="M24.6535 5.99561C24.6705 5.99564 24.6889 5.99568 24.7087 5.99573L24.9211 5.99639C27.3864 6.00545 39.8818 6.09602 43.2508 7.00175C45.316 7.55569 46.9423 9.18815 47.4943 11.2604C47.7982 12.3988 48.01 13.912 48.1576 15.4683L48.1863 15.78C48.2095 16.0401 48.2309 16.3008 48.2508 16.5605L48.2739 16.8716C48.4711 19.6139 48.4941 22.1801 48.4967 22.7416L48.497 22.8173C48.4971 22.8235 48.4971 22.8337 48.4971 22.8337V22.8762C48.4971 22.8762 48.4971 22.8863 48.497 22.8925L48.4967 22.9683C48.494 23.5509 48.4693 26.2926 48.2508 29.1495L48.2262 29.4616L48.2 29.7739C48.0514 31.4916 47.8286 33.1973 47.4943 34.4495C46.9423 36.5217 45.316 38.1546 43.2508 38.7081C39.7695 39.6444 26.5433 39.7099 24.7087 39.7145L24.5674 39.7148C24.5558 39.7148 24.5456 39.7148 24.5368 39.7149L24.4792 39.7149C24.4792 39.7149 24.466 39.7149 24.4572 39.7149L24.2854 39.7145C23.3582 39.7122 19.5217 39.6943 15.5039 39.5564L14.9902 39.5381C14.9045 39.5349 14.8188 39.5317 14.733 39.5284L14.2187 39.5081L13.7056 39.4864C10.3771 39.3403 7.20357 39.1008 5.74367 38.7081C3.67841 38.1546 2.05211 36.5217 1.50014 34.4495C1.16574 33.1973 0.942807 31.4916 0.794185 29.7739L0.767973 29.4616L0.74335 29.1495C0.53271 26.3965 0.502133 23.7505 0.497695 23.0403L0.497164 22.9387C0.497127 22.9295 0.497096 22.9211 0.49707 22.9134V22.7965C0.497096 22.7888 0.497127 22.7804 0.497164 22.7712L0.497695 22.6696C0.501715 22.0264 0.527174 19.7955 0.688413 17.3353L0.709284 17.0266C0.712883 16.975 0.716543 16.9233 0.720265 16.8716L0.74335 16.5605C0.763221 16.3008 0.784696 16.0401 0.807902 15.78L0.836588 15.4683C0.984261 13.912 1.19614 12.3988 1.50014 11.2604C2.05211 9.18815 3.67841 7.55569 5.74367 7.00175C7.20357 6.60927 10.3771 6.36986 13.7056 6.22381L14.2187 6.20207L14.733 6.18176C14.8188 6.17849 14.9045 6.17528 14.9902 6.17212L15.5039 6.15385C19.2652 6.02473 22.8677 6.00082 24.073 5.99639L24.2854 5.99573C24.3051 5.99568 24.3235 5.99564 24.3406 5.99561H24.6535ZM19.6972 15.6292V30.0807L32.1674 22.8553L19.6972 15.6292Z" fill="#735EE0"/>
</svg>
