<svg width="32" height="32" viewBox="0 0 32 32" fill="none" xmlns="http://www.w3.org/2000/svg">
<path d="M10 9C10 8.44772 10.4477 8 11 8H15V12H10V9Z" fill="url(#paint0_linear_227_3837)"/>
<path d="M17 12V8H21C21.5523 8 22 8.44772 22 9V12H17Z" fill="url(#paint1_linear_227_3837)"/>
<path d="M10 14H22V18H10V14Z" fill="url(#paint2_linear_227_3837)"/>
<path d="M17 20H22V23C22 23.5523 21.5523 24 21 24H17V20Z" fill="url(#paint3_linear_227_3837)"/>
<path d="M15 20V24H11C10.4477 24 10 23.5523 10 23V20H15Z" fill="url(#paint4_linear_227_3837)"/>
<path d="M7 0C5.34315 0 4 1.34315 4 3V29C4 30.6569 5.34314 32 7 32H25C26.6569 32 28 30.6569 28 29V6.82843C28 6.03278 27.6839 5.26972 27.1213 4.70711L23.2929 0.87868C22.7303 0.316071 21.9672 0 21.1716 0H7ZM11 6H21C22.6569 6 24 7.34315 24 9V23C24 24.6569 22.6569 26 21 26H11C9.34315 26 8 24.6569 8 23V9C8 7.34315 9.34315 6 11 6Z" fill="url(#paint5_linear_227_3837)"/>
<defs>
<linearGradient id="paint0_linear_227_3837" x1="28" y1="16" x2="4" y2="16" gradientUnits="userSpaceOnUse">
<stop stop-color="#735EE0"/>
<stop offset="1" stop-color="#22DBD7"/>
</linearGradient>
<linearGradient id="paint1_linear_227_3837" x1="28" y1="16" x2="4" y2="16" gradientUnits="userSpaceOnUse">
<stop stop-color="#735EE0"/>
<stop offset="1" stop-color="#22DBD7"/>
</linearGradient>
<linearGradient id="paint2_linear_227_3837" x1="28" y1="16" x2="4" y2="16" gradientUnits="userSpaceOnUse">
<stop stop-color="#735EE0"/>
<stop offset="1" stop-color="#22DBD7"/>
</linearGradient>
<linearGradient id="paint3_linear_227_3837" x1="28" y1="16" x2="4" y2="16" gradientUnits="userSpaceOnUse">
<stop stop-color="#735EE0"/>
<stop offset="1" stop-color="#22DBD7"/>
</linearGradient>
<linearGradient id="paint4_linear_227_3837" x1="28" y1="16" x2="4" y2="16" gradientUnits="userSpaceOnUse">
<stop stop-color="#735EE0"/>
<stop offset="1" stop-color="#22DBD7"/>
</linearGradient>
<linearGradient id="paint5_linear_227_3837" x1="28" y1="16" x2="4" y2="16" gradientUnits="userSpaceOnUse">
<stop stop-color="#735EE0"/>
<stop offset="1" stop-color="#22DBD7"/>
</linearGradient>
</defs>
</svg>
